<svg version="1.1" id="Capa_1" xmlns="http://www.w3.org/2000/svg" x="0" y="0" viewBox="0 0 512 512" xml:space="preserve"><style>.st0{fill:#029fe2}</style><path class="st0" d="M257.3 0C118 0 4.7 113.3 4.7 252.6c0 54.3 17 106 49.1 149.5-1.6 12.1-4.8 23.6-9.8 34.3-7.4 15.8-16.7 25.8-23.5 33.1-7.6 8.1-15.4 16.6-11.1 27.4 4.3 11 19.3 14.8 38.3 14.8 18.7 0 41.2-3.7 61.4-8.1 17.7-3.9 35.2-9.3 51.9-16.1.6-.2 1.1-.5 1.6-.9 30 12.2 61.8 18.4 94.6 18.4 63.7 0 124.5-23.8 171.2-66.9 4.4-4.1 4.7-11 .6-15.5-4.1-4.4-11-4.7-15.5-.6-42.7 39.4-98.2 61.1-156.4 61.1-31.7 0-62.4-6.3-91.3-18.8-4.4-1.9-9.3-.7-12.3 2.6-.3.1-.5.1-.8.2-15.6 6.3-31.8 11.3-48.4 14.9-32.4 7.1-61.1 8.9-72 6.6 1.2-1.4 2.7-3 4.1-4.5 7.4-7.9 18.5-19.9 27.3-38.8 6.6-14 10.7-29.3 12.3-45.4.3-3.3-.9-6.4-3.1-8.7-.2-.3-.3-.7-.6-1-30-40.1-45.9-87.9-45.9-138.1 0-127.2 103.5-230.7 230.7-230.7S488 125.4 488 252.6c0 43.1-12 85.1-34.6 121.6-3.2 5.1-1.6 11.9 3.5 15.1s11.9 1.6 15.1-3.5c24.8-39.9 37.9-85.9 37.9-133.1C509.9 113.3 396.6 0 257.3 0z"/><path class="st0" d="M351.3 169.4c-1.8-46.8-39.8-84.8-86.6-86.6-24.8-1-48.2 8-66 25.1s-27.6 40.2-27.6 64.9c0 6 4.9 10.9 10.9 10.9s10.9-4.9 10.9-10.9c0-18.7 7.4-36.2 20.9-49.2s31-19.7 50-19c34.8 1.3 64.2 30.7 65.5 65.5 1.1 30-21.1 50.1-45.4 67.4-17.5 12.5-33.8 27.5-33.8 52.5v60.5c0 6 4.9 10.9 10.9 10.9s10.9-4.9 10.9-10.9V290c0-12.7 6.4-21.7 24.6-34.6 28-19.8 56.3-45.5 54.8-86zm-90.1 212.8c-11.9 0-21.6 9.7-21.6 21.6s9.7 21.6 21.6 21.6c11.9 0 21.6-9.7 21.6-21.6s-9.7-21.6-21.6-21.6z"/></svg>